<mxfile host="app.diagrams.net" modified="2023-07-29T02:27:58.953Z" agent="Mozilla/5.0 (Windows NT 10.0; Win64; x64) AppleWebKit/537.36 (KHTML, like Gecko) Chrome/115.0.0.0 Safari/537.36" etag="1JStGdLF0MWlkLcYaWeq" version="21.6.5" type="github">
  <diagram name="第 1 页" id="7nV9Hr0eR04SHTu4pcRX">
    <mxGraphModel dx="880" dy="446" grid="1" gridSize="10" guides="1" tooltips="1" connect="1" arrows="1" fold="1" page="1" pageScale="1" pageWidth="827" pageHeight="1169" math="0" shadow="0">
      <root>
        <mxCell id="0" />
        <mxCell id="1" parent="0" />
        <mxCell id="h-wCyO-KVjlHaPk3qqvn-1" value="CPU" style="rounded=1;whiteSpace=wrap;html=1;fillColor=#ffe6cc;strokeColor=#d79b00;strokeWidth=2;fontSize=18;" vertex="1" parent="1">
          <mxGeometry x="160" y="220" width="120" height="60" as="geometry" />
        </mxCell>
        <mxCell id="h-wCyO-KVjlHaPk3qqvn-2" value="物理内存" style="rounded=1;whiteSpace=wrap;html=1;fillColor=#fff2cc;strokeColor=#d6b656;strokeWidth=2;fontSize=18;" vertex="1" parent="1">
          <mxGeometry x="500" y="220" width="120" height="60" as="geometry" />
        </mxCell>
        <mxCell id="h-wCyO-KVjlHaPk3qqvn-3" value="" style="endArrow=classic;html=1;rounded=0;exitX=1;exitY=0.5;exitDx=0;exitDy=0;entryX=0;entryY=0.5;entryDx=0;entryDy=0;strokeWidth=2;fontSize=18;" edge="1" parent="1" source="h-wCyO-KVjlHaPk3qqvn-1" target="h-wCyO-KVjlHaPk3qqvn-2">
          <mxGeometry width="50" height="50" relative="1" as="geometry">
            <mxPoint x="390" y="260" as="sourcePoint" />
            <mxPoint x="490" y="260" as="targetPoint" />
          </mxGeometry>
        </mxCell>
        <mxCell id="h-wCyO-KVjlHaPk3qqvn-4" value="物理地址" style="edgeLabel;html=1;align=center;verticalAlign=middle;resizable=0;points=[];fontSize=18;" vertex="1" connectable="0" parent="h-wCyO-KVjlHaPk3qqvn-3">
          <mxGeometry x="0.4273" y="2" relative="1" as="geometry">
            <mxPoint x="-47" y="-18" as="offset" />
          </mxGeometry>
        </mxCell>
      </root>
    </mxGraphModel>
  </diagram>
</mxfile>
